{"accessors":[{"bufferView":2,"componentType":5126,"count":1465,"max":[68.0911865234375,77.24287414550781,43.43251037597656],"min":[-68.0911865234375,-83.07012939453125,-64.61638641357422],"type":"VEC3"},{"bufferView":2,"byteOffset":17580,"componentType":5126,"count":1465,"max":[0.99223393201828,0.9950402975082397,0.9999141097068787],"min":[-0.99205482006073,-0.9888660907745361,-0.9999068379402161],"type":"VEC3"},{"bufferView":1,"componentType":5126,"count":1465,"max":[0.9915621280670166,0.991549015045166],"min":[0.008437900803983212,0.008450984954833984],"type":"VEC2"},{"bufferView":0,"componentType":5125,"count":4734,"type":"SCALAR"}],"asset":{"extras":{"author":"theboxtv (https://sketchfab.com/theboxtv)","license":"CC-BY-4.0 (http://creativecommons.org/licenses/by/4.0/)","source":"https://sketchfab.com/3d-models/gold-rush-hard-hat-only-no-animation-55e89a8f828d498ba1e7827fd90019a7","title":"Gold Rush Hard Hat Only No Animation"},"generator":"Sketchfab-12.68.0","version":"2.0"},"bufferViews":[{"buffer":0,"byteLength":18936,"name":"floatBufferViews","target":34963},{"buffer":0,"byteLength":11720,"byteOffset":18936,"byteStride":8,"name":"floatBufferViews","target":34962},{"buffer":0,"byteLength":35160,"byteOffset":30656,"byteStride":12,"name":"floatBufferViews","target":34962}],"buffers":[{"byteLength":65816,"uri":"data:application/octet-stream;base64,"}],"extensionsUsed":["KHR_materials_clearcoat"],"images":[{"uri":"data:application/octet-stream;base64,"}],"materials":[{"doubleSided":true,"extensions":{"KHR_materials_clearcoat":{"clearcoatFactor":0.37366615853658536,"clearcoatRoughnessFactor":0.04}},"name":"GOLD_RUSH_HARD_HAT","pbrMetallicRoughness":{"baseColorTexture":{"index":0},"metallicFactor":0.40415396341463417,"roughnessFactor":0.9224466463414634}}],"meshes":[{"name":"GOLD_RUSH_HARD_HAT_GOLD RUSH HARD HAT_0","primitives":[{"attributes":{"NORMAL":1,"POSITION":0,"TEXCOORD_0":2},"indices":3,"material":0,"mode":4}]}],"nodes":[{"children":[1],"matrix":[1,0,0,0,0,2.220446049250313e-16,-1,0,0,1,2.220446049250313e-16,0,3.653631210909225e-7,-7.105427366452531e-15,3.9863742529178126e-8,1],"name":"Sketchfab_model"},{"children":[2],"matrix":[1,0,0,0,0,0,1,0,0,-1,0,0,0,0,0,1],"name":"0018dba9f66c4ea5836e910358412078.fbx"},{"children":[3,5,8],"name":"RootNode"},{"children":[4],"matrix":[0.032101051716411866,0.030524822970616844,-0.999018397058489,0,-0.0009803357484327434,0.9995340090175083,0.03050907666921178,0,0.9994841476584412,7.45931094670027e-17,0.03211601749095616,0,9.603781700134277,38.807830810546875,360.1485900878906,1],"name":"CINEMA_4D_Editor"},{"name":"Object_4"},{"children":[6],"matrix":[1,0,0,0,0,2.220446049250313e-16,1,0,0,-1,2.220446049250313e-16,0,19.664703369140625,279.9439392089844,173.2781524658203,1],"name":"Light"},{"children":[7],"matrix":[1,0,0,0,0,2.220446049250313e-16,1,0,0,-1,2.220446049250313e-16,0,0,0,0,1],"name":"Object_6"},{"name":"Object_7"},{"children":[9],"matrix":[-0.9999999999999964,-1.2246467202362698e-16,8.560065379892988e-8,0,8.560065379892988e-8,0,0.9999999999999964,0,-1.2246467202362698e-16,1,0,0,18.79561996459961,44.707908630371094,-16.033681869506836,1],"name":"GOLD_RUSH_HARD_HAT"},{"mesh":0,"name":"GOLD_RUSH_HARD_HAT_GOLD RUSH HARD HAT_0"}],"samplers":[{"magFilter":9729,"minFilter":9987,"wrapS":10497,"wrapT":10497}],"scene":0,"scenes":[{"name":"Sketchfab_Scene","nodes":[0]}],"textures":[{"sampler":0,"source":0}]}